<svg width="180" height="180" viewBox="0 0 180 180" fill="none" xmlns="http://www.w3.org/2000/svg">
<rect width="180" height="180" rx="42" fill="#FE3265"/>
<path fill-rule="evenodd" clip-rule="evenodd" d="M55 28.75C47.7513 28.75 41.875 34.6263 41.875 41.875V85.625C41.875 100.122 53.6275 111.875 68.125 111.875H94.375C104.04 111.875 111.875 119.71 111.875 129.375V138.125C111.875 145.374 117.751 151.25 125 151.25C132.249 151.25 138.125 145.374 138.125 138.125V116.25C138.125 101.753 126.372 90 111.875 90H85.8267C76.0503 90 68.125 82.0747 68.125 72.2983V41.875C68.125 34.6263 62.2487 28.75 55 28.75ZM138.125 93.099C131.712 85.8329 122.329 81.25 111.875 81.25H85.8267C80.8828 81.25 76.875 77.2422 76.875 72.2983V41.875C76.875 29.7938 67.0812 20 55 20C42.9188 20 33.125 29.7938 33.125 41.875V138.125C33.125 150.206 42.9188 160 55 160C67.0812 160 76.875 150.206 76.875 138.125V133.75C76.875 131.334 74.9162 129.375 72.5 129.375C70.0838 129.375 68.125 131.334 68.125 133.75V138.125C68.125 145.374 62.2487 151.25 55 151.25C47.7513 151.25 41.875 145.374 41.875 138.125V108.776C48.2883 116.042 57.6714 120.625 68.125 120.625H94.375C99.2075 120.625 103.125 124.543 103.125 129.375V138.125C103.125 150.206 112.919 160 125 160C137.081 160 146.875 150.206 146.875 138.125V41.875C146.875 29.7938 137.081 20 125 20C112.919 20 103.125 29.7938 103.125 41.875V68.125C103.125 70.5412 105.084 72.5 107.5 72.5C109.916 72.5 111.875 70.5412 111.875 68.125V41.875C111.875 34.6263 117.751 28.75 125 28.75C132.249 28.75 138.125 34.6263 138.125 41.875V93.099Z" fill="white"/>
</svg>
