<svg width="120" height="120" viewBox="0 0 120 120" fill="none" xmlns="http://www.w3.org/2000/svg">
<path fill-rule="evenodd" clip-rule="evenodd" d="M79.1189 0H40.8811C28.0984 0 22.2925 0.0298969 16.052 1.99042C9.52727 4.38617 4.38617 9.52727 1.99042 16.052C0.0298982 22.2925 0 28.0995 0 40.8811V79.1189C0 91.9014 0.0298814 97.7065 1.99044 103.948C4.38624 110.473 9.52743 115.614 16.0519 118.009C22.2924 119.97 28.0981 120 40.8811 120H79.1189C91.9017 120 97.7065 119.97 103.948 118.009C110.473 115.614 115.614 110.473 118.01 103.948C119.97 97.7065 120 91.9015 120 79.1189V40.8811C120 28.0994 119.97 22.2924 118.01 16.0518C115.614 9.52722 110.473 4.38617 103.948 1.99044C97.7065 0.0298814 91.9014 0 79.1189 0Z" fill="#FE3265"/>
<path fill-rule="evenodd" clip-rule="evenodd" d="M41.7188 27.1875C37.8355 27.1875 34.6875 30.3355 34.6875 34.2188V57.6562C34.6875 65.4228 40.9835 71.7188 48.75 71.7188H62.8125C67.9902 71.7188 72.1875 75.9161 72.1875 81.0938V85.7812C72.1875 89.6645 75.3355 92.8125 79.2188 92.8125C83.102 92.8125 86.25 89.6645 86.25 85.7812V74.0625C86.25 66.296 79.954 60 72.1875 60H58.2331C52.9957 60 48.75 55.7543 48.75 50.5169V34.2188C48.75 30.3355 45.602 27.1875 41.7188 27.1875ZM86.25 61.6602C82.8143 57.7676 77.7876 55.3125 72.1875 55.3125H58.2331C55.5846 55.3125 53.4375 53.1654 53.4375 50.5169V34.2188C53.4375 27.7467 48.1908 22.5 41.7188 22.5C35.2467 22.5 30 27.7467 30 34.2188V85.7812C30 92.2533 35.2467 97.5 41.7188 97.5C48.1908 97.5 53.4375 92.2533 53.4375 85.7812V83.4375C53.4375 82.1431 52.3882 81.0938 51.0938 81.0938C49.7993 81.0938 48.75 82.1431 48.75 83.4375V85.7812C48.75 89.6645 45.602 92.8125 41.7188 92.8125C37.8355 92.8125 34.6875 89.6645 34.6875 85.7812V70.0586C38.1232 73.9511 43.1499 76.4062 48.75 76.4062H62.8125C65.4013 76.4062 67.5 78.5049 67.5 81.0938V85.7812C67.5 92.2533 72.7467 97.5 79.2188 97.5C85.6908 97.5 90.9375 92.2533 90.9375 85.7812V34.2188C90.9375 27.7467 85.6908 22.5 79.2188 22.5C72.7467 22.5 67.5 27.7467 67.5 34.2188V48.2812C67.5 49.5757 68.5493 50.625 69.8438 50.625C71.1382 50.625 72.1875 49.5757 72.1875 48.2812V34.2188C72.1875 30.3355 75.3355 27.1875 79.2188 27.1875C83.102 27.1875 86.25 30.3355 86.25 34.2188V61.6602Z" fill="white"/>
</svg>
