<svg viewBox="0 0 92 35" fill="none" xmlns="http://www.w3.org/2000/svg">
<path fill-rule="evenodd" clip-rule="evenodd" d="M5 4C3.34315 4 2 5.34315 2 7V17C2 20.3137 4.68629 23 8 23H14C16.2091 23 18 24.7909 18 27V29C18 30.6569 19.3431 32 21 32C22.6569 32 24 30.6569 24 29V24C24 20.6863 21.3137 18 18 18H12.0461C9.81151 18 8 16.1885 8 13.9539V7C8 5.34315 6.65685 4 5 4ZM24 18.7084C22.5341 17.0475 20.3894 16 18 16H12.0461C10.9161 16 10 15.0839 10 13.9539V7C10 4.23858 7.76142 2 5 2C2.23858 2 0 4.23858 0 7V29C0 31.7614 2.23858 34 5 34C7.76142 34 10 31.7614 10 29V28C10 27.4477 9.55229 27 9 27C8.44772 27 8 27.4477 8 28V29C8 30.6569 6.65685 32 5 32C3.34315 32 2 30.6569 2 29V22.2916C3.46589 23.9525 5.61061 25 8 25H14C15.1046 25 16 25.8954 16 27V29C16 31.7614 18.2386 34 21 34C23.7614 34 26 31.7614 26 29V7C26 4.23858 23.7614 2 21 2C18.2386 2 16 4.23858 16 7V13C16 13.5523 16.4477 14 17 14C17.5523 14 18 13.5523 18 13V7C18 5.34315 19.3431 4 21 4C22.6569 4 24 5.34315 24 7V18.7084Z" fill="#FE3265"/>
<path d="M43.268 19.628C43.268 19.0307 43.2307 18.508 43.156 18.06C43.0813 17.5933 42.9413 17.2107 42.736 16.912C42.5493 16.6133 42.2787 16.3893 41.924 16.24C41.5693 16.0907 41.1213 16.016 40.58 16.016C40.132 16.016 39.712 16.0627 39.32 16.156C38.9467 16.2493 38.62 16.4267 38.34 16.688C38.0787 16.9307 37.864 17.2853 37.696 17.752C37.5467 18.2 37.472 18.7787 37.472 19.488V27.412C37.472 27.7293 37.304 28 36.968 28.224C36.6507 28.4667 36.24 28.588 35.736 28.588C35.232 28.588 34.812 28.4667 34.476 28.224C34.1587 27.9813 34 27.7107 34 27.412V8.176C34 7.84 34.168 7.56 34.504 7.336C34.8587 7.112 35.2787 7 35.764 7C36.2493 7 36.6507 7.112 36.968 7.336C37.304 7.56 37.472 7.84 37.472 8.176V15.456C37.64 15.12 37.836 14.8027 38.06 14.504C38.3027 14.2053 38.5827 13.9347 38.9 13.692C39.236 13.4493 39.6093 13.2627 40.02 13.132C40.4493 12.9827 40.9347 12.908 41.476 12.908C42.204 12.908 42.8853 13.02 43.52 13.244C44.1547 13.468 44.7053 13.804 45.172 14.252C45.6573 14.6813 46.04 15.232 46.32 15.904C46.6 16.576 46.74 17.36 46.74 18.256V27.412C46.74 27.748 46.5813 28.028 46.264 28.252C45.9653 28.476 45.5547 28.588 45.032 28.588C44.5093 28.588 44.08 28.476 43.744 28.252C43.4267 28.028 43.268 27.748 43.268 27.412V19.628Z" fill="#FE3265"/>
<path d="M57.8486 19.6C57.8486 19.1333 57.8112 18.6853 57.7366 18.256C57.6619 17.808 57.5219 17.4253 57.3166 17.108C57.1299 16.772 56.8686 16.5107 56.5326 16.324C56.2152 16.1187 55.7952 16.016 55.2726 16.016C54.6006 16.016 54.0592 16.1373 53.6486 16.38C53.2379 16.604 52.9206 16.9027 52.6966 17.276C52.4726 17.6307 52.3232 18.0227 52.2486 18.452C52.1739 18.8627 52.1366 19.2453 52.1366 19.6H57.8486ZM55.3566 28.868C54.2179 28.868 53.2286 28.6813 52.3886 28.308C51.5486 27.9347 50.8486 27.412 50.2886 26.74C49.7286 26.0493 49.3086 25.2187 49.0286 24.248C48.7486 23.2773 48.6086 22.1947 48.6086 21C48.6086 19.8427 48.7486 18.7693 49.0286 17.78C49.3086 16.7907 49.7286 15.9413 50.2886 15.232C50.8672 14.504 51.5766 13.9347 52.4166 13.524C53.2566 13.1133 54.2366 12.908 55.3566 12.908C56.4206 12.908 57.3259 13.0947 58.0726 13.468C58.8192 13.8413 59.4259 14.3453 59.8926 14.98C60.3779 15.6147 60.7326 16.352 60.9566 17.192C61.1806 18.032 61.2926 18.9187 61.2926 19.852C61.2926 20.636 61.1899 21.2333 60.9846 21.644C60.7792 22.0547 60.3966 22.26 59.8366 22.26H52.1366C52.1366 22.6893 52.1832 23.1093 52.2766 23.52C52.3699 23.9307 52.5379 24.304 52.7806 24.64C53.0419 24.976 53.3779 25.2467 53.7886 25.452C54.2179 25.6573 54.7592 25.76 55.4126 25.76C56.2526 25.76 56.9059 25.6387 57.3726 25.396C57.8579 25.1347 58.2406 24.8453 58.5206 24.528C58.7259 24.2853 58.9312 24.136 59.1366 24.08C59.3419 24.024 59.5286 24.024 59.6966 24.08C59.8832 24.1173 60.0419 24.1827 60.1726 24.276C60.3219 24.3693 60.4432 24.444 60.5366 24.5C60.8912 24.78 61.0312 25.172 60.9566 25.676C60.8819 26.1613 60.6112 26.6467 60.1446 27.132C59.6966 27.5987 59.0619 28 58.2406 28.336C57.4379 28.6907 56.4766 28.868 55.3566 28.868Z" fill="#FE3265"/>
<path d="M72.6039 25.452C72.4546 25.7693 72.2586 26.0867 72.0159 26.404C71.7732 26.7027 71.4839 26.9733 71.1479 27.216C70.8306 27.4587 70.4572 27.6547 70.0279 27.804C69.5986 27.9347 69.1226 28 68.5999 28C67.8719 28 67.1906 27.888 66.5559 27.664C65.9212 27.44 65.3612 27.1133 64.8759 26.684C64.4092 26.236 64.0359 25.676 63.7559 25.004C63.4759 24.332 63.3359 23.548 63.3359 22.652V14.364C63.3359 14.028 63.4852 13.748 63.7839 13.524C64.1012 13.3 64.5212 13.188 65.0439 13.188C65.5666 13.188 65.9866 13.3 66.3039 13.524C66.6399 13.748 66.8079 14.028 66.8079 14.364V21.28C66.8079 21.8773 66.8452 22.4 66.9199 22.848C66.9946 23.296 67.1252 23.6693 67.3119 23.968C67.5172 24.2667 67.7972 24.4907 68.1519 24.64C68.5066 24.7893 68.9546 24.864 69.4959 24.864C69.9439 24.864 70.3546 24.8173 70.7279 24.724C71.1199 24.6307 71.4466 24.4627 71.7079 24.22C71.9879 23.9587 72.2026 23.604 72.3519 23.156C72.5199 22.708 72.6039 22.1293 72.6039 21.42V14.364C72.6039 14.0467 72.7626 13.776 73.0799 13.552C73.4159 13.3093 73.8359 13.188 74.3399 13.188C74.8439 13.188 75.2546 13.3093 75.5719 13.552C75.9079 13.7947 76.0759 14.0653 76.0759 14.364V27.636C76.0759 28.4947 75.8986 29.2693 75.5439 29.96C75.1892 30.6693 74.6946 31.276 74.0599 31.78C73.4252 32.284 72.6786 32.6667 71.8199 32.928C70.9799 33.1893 70.0746 33.3107 69.1039 33.292C68.5626 33.292 68.0679 33.264 67.6199 33.208C67.1906 33.1707 66.7706 33.0867 66.3599 32.956C65.9679 32.8253 65.5759 32.648 65.1839 32.424C64.8106 32.2187 64.4186 31.9573 64.0079 31.64C63.5599 31.2853 63.2892 30.9213 63.1959 30.548C63.1212 30.1933 63.1399 29.8387 63.2519 29.484C63.4199 28.9613 63.6626 28.644 63.9799 28.532C64.3159 28.4387 64.6426 28.532 64.9599 28.812C65.4079 29.204 65.9586 29.512 66.6119 29.736C67.2839 29.9787 68.1052 30.0907 69.0759 30.072C69.6546 30.0533 70.1586 29.9693 70.5879 29.82C71.0359 29.6707 71.4092 29.484 71.7079 29.26C72.0066 29.036 72.2306 28.784 72.3799 28.504C72.5292 28.224 72.6039 27.944 72.6039 27.664V25.452Z" fill="#FE3265"/>
<path d="M87.9164 25.452C87.7671 25.7693 87.5711 26.0867 87.3284 26.404C87.0857 26.7027 86.7964 26.9733 86.4604 27.216C86.1431 27.4587 85.7697 27.6547 85.3404 27.804C84.9111 27.9347 84.4351 28 83.9124 28C83.1844 28 82.5031 27.888 81.8684 27.664C81.2337 27.44 80.6737 27.1133 80.1884 26.684C79.7217 26.236 79.3484 25.676 79.0684 25.004C78.7884 24.332 78.6484 23.548 78.6484 22.652V14.364C78.6484 14.028 78.7977 13.748 79.0964 13.524C79.4137 13.3 79.8337 13.188 80.3564 13.188C80.8791 13.188 81.2991 13.3 81.6164 13.524C81.9524 13.748 82.1204 14.028 82.1204 14.364V21.28C82.1204 21.8773 82.1577 22.4 82.2324 22.848C82.3071 23.296 82.4377 23.6693 82.6244 23.968C82.8297 24.2667 83.1097 24.4907 83.4644 24.64C83.8191 24.7893 84.2671 24.864 84.8084 24.864C85.2564 24.864 85.6671 24.8173 86.0404 24.724C86.4324 24.6307 86.7591 24.4627 87.0204 24.22C87.3004 23.9587 87.5151 23.604 87.6644 23.156C87.8324 22.708 87.9164 22.1293 87.9164 21.42V14.364C87.9164 14.0467 88.0751 13.776 88.3924 13.552C88.7284 13.3093 89.1484 13.188 89.6524 13.188C90.1564 13.188 90.5671 13.3093 90.8844 13.552C91.2204 13.7947 91.3884 14.0653 91.3884 14.364V27.636C91.3884 28.4947 91.2111 29.2693 90.8564 29.96C90.5017 30.6693 90.0071 31.276 89.3724 31.78C88.7377 32.284 87.9911 32.6667 87.1324 32.928C86.2924 33.1893 85.3871 33.3107 84.4164 33.292C83.8751 33.292 83.3804 33.264 82.9324 33.208C82.5031 33.1707 82.0831 33.0867 81.6724 32.956C81.2804 32.8253 80.8884 32.648 80.4964 32.424C80.1231 32.2187 79.7311 31.9573 79.3204 31.64C78.8724 31.2853 78.6017 30.9213 78.5084 30.548C78.4337 30.1933 78.4524 29.8387 78.5644 29.484C78.7324 28.9613 78.9751 28.644 79.2924 28.532C79.6284 28.4387 79.9551 28.532 80.2724 28.812C80.7204 29.204 81.2711 29.512 81.9244 29.736C82.5964 29.9787 83.4177 30.0907 84.3884 30.072C84.9671 30.0533 85.4711 29.9693 85.9004 29.82C86.3484 29.6707 86.7217 29.484 87.0204 29.26C87.3191 29.036 87.5431 28.784 87.6924 28.504C87.8417 28.224 87.9164 27.944 87.9164 27.664V25.452Z" fill="#FE3265"/>
</svg>
