<svg width="1000" height="180" viewBox="0 0 1000 180" fill="none" xmlns="http://www.w3.org/2000/svg">
<path d="M505.494 87.8158C505.494 86.4528 505.41 85.2601 505.241 84.2378C505.072 83.1729 504.754 82.2997 504.289 81.6182C503.867 80.9367 503.253 80.4255 502.45 80.0848C501.647 79.744 500.632 79.5736 499.405 79.5736C498.391 79.5736 497.439 79.6801 496.551 79.8931C495.706 80.1061 494.966 80.5107 494.331 81.1071C493.739 81.6608 493.253 82.4701 492.872 83.535C492.534 84.5573 492.365 85.8778 492.365 87.4964V105.578C492.365 106.302 491.984 106.92 491.223 107.431C490.504 107.985 489.574 108.262 488.433 108.262C487.291 108.262 486.339 107.985 485.578 107.431C484.859 106.877 484.5 106.26 484.5 105.578V61.6835C484.5 60.9168 484.881 60.2779 485.642 59.7667C486.445 59.2556 487.397 59 488.496 59C489.595 59 490.504 59.2556 491.223 59.7667C491.984 60.2779 492.365 60.9168 492.365 61.6835V78.2958C492.746 77.529 493.19 76.8049 493.697 76.1234C494.247 75.4419 494.881 74.8242 495.6 74.2705C496.361 73.7167 497.207 73.2908 498.137 72.9926C499.109 72.6519 500.209 72.4815 501.435 72.4815C503.084 72.4815 504.628 72.737 506.065 73.2482C507.503 73.7593 508.75 74.5261 509.808 75.5483C510.907 76.528 511.774 77.7846 512.408 79.318C513.042 80.8515 513.359 82.6405 513.359 84.6851V105.578C513.359 106.345 513 106.984 512.281 107.495C511.605 108.006 510.674 108.262 509.49 108.262C508.306 108.262 507.334 108.006 506.573 107.495C505.854 106.984 505.494 106.345 505.494 105.578V87.8158Z" fill="black"/>
<path d="M538.523 87.752C538.523 86.6871 538.439 85.6648 538.27 84.6851C538.1 83.6628 537.783 82.7896 537.318 82.0655C536.895 81.2987 536.303 80.7024 535.542 80.2764C534.823 79.8079 533.872 79.5736 532.688 79.5736C531.166 79.5736 529.939 79.8505 529.009 80.4042C528.079 80.9154 527.36 81.5969 526.853 82.4488C526.345 83.2581 526.007 84.1526 525.838 85.1323C525.669 86.0694 525.584 86.9426 525.584 87.752H538.523ZM532.878 108.901C530.299 108.901 528.058 108.475 526.155 107.623C524.252 106.771 522.666 105.578 521.398 104.045C520.129 102.469 519.178 100.573 518.544 98.3582C517.909 96.1433 517.592 93.6727 517.592 90.9466C517.592 88.3057 517.909 85.8565 518.544 83.5989C519.178 81.3413 520.129 79.4032 521.398 77.7846C522.709 76.1234 524.316 74.8242 526.218 73.8871C528.121 72.95 530.341 72.4815 532.878 72.4815C535.289 72.4815 537.339 72.9074 539.031 73.7593C540.722 74.6112 542.096 75.7613 543.154 77.2096C544.253 78.6578 545.056 80.3403 545.564 82.2571C546.071 84.1739 546.325 86.1972 546.325 88.327C546.325 90.116 546.092 91.4791 545.627 92.4162C545.162 93.3533 544.295 93.8218 543.027 93.8218H525.584C525.584 94.8015 525.69 95.7599 525.901 96.697C526.113 97.6341 526.493 98.486 527.043 99.2527C527.635 100.019 528.396 100.637 529.326 101.106C530.299 101.574 531.525 101.808 533.005 101.808C534.908 101.808 536.388 101.532 537.445 100.978C538.544 100.382 539.411 99.7213 540.046 98.9972C540.511 98.4434 540.976 98.1027 541.441 97.9749C541.906 97.8471 542.329 97.8471 542.71 97.9749C543.132 98.0601 543.492 98.2091 543.788 98.4221C544.126 98.6351 544.401 98.8055 544.612 98.9333C545.416 99.5722 545.733 100.467 545.564 101.617C545.395 102.724 544.782 103.832 543.724 104.939C542.71 106.004 541.272 106.92 539.411 107.687C537.593 108.496 535.415 108.901 532.878 108.901Z" fill="black"/>
<path d="M571.948 101.106C571.61 101.83 571.166 102.554 570.616 103.278C570.066 103.96 569.411 104.577 568.65 105.131C567.931 105.685 567.085 106.132 566.113 106.473C565.14 106.771 564.062 106.92 562.878 106.92C561.229 106.92 559.685 106.664 558.248 106.153C556.81 105.642 555.542 104.897 554.442 103.917C553.385 102.895 552.539 101.617 551.905 100.083C551.271 98.5499 550.954 96.7609 550.954 94.7163V75.8039C550.954 75.0372 551.292 74.3983 551.968 73.8871C552.687 73.376 553.639 73.1204 554.823 73.1204C556.007 73.1204 556.958 73.376 557.677 73.8871C558.438 74.3983 558.819 75.0372 558.819 75.8039V91.5855C558.819 92.9486 558.903 94.1413 559.072 95.1636C559.241 96.1859 559.537 97.0378 559.96 97.7193C560.425 98.4008 561.06 98.912 561.863 99.2527C562.667 99.5935 563.681 99.7639 564.908 99.7639C565.923 99.7639 566.853 99.6574 567.698 99.4444C568.586 99.2314 569.326 98.8481 569.918 98.2943C570.553 97.698 571.039 96.8887 571.377 95.8664C571.758 94.8441 571.948 93.5236 571.948 91.905V75.8039C571.948 75.0798 572.308 74.4622 573.026 73.951C573.788 73.3973 574.739 73.1204 575.881 73.1204C577.022 73.1204 577.953 73.3973 578.671 73.951C579.433 74.5048 579.813 75.1224 579.813 75.8039V106.089C579.813 108.049 579.411 109.816 578.608 111.392C577.805 113.011 576.684 114.395 575.246 115.546C573.809 116.696 572.117 117.569 570.172 118.165C568.269 118.761 566.219 119.038 564.02 118.996C562.793 118.996 561.673 118.932 560.658 118.804C559.685 118.719 558.734 118.527 557.804 118.229C556.916 117.931 556.028 117.526 555.14 117.015C554.294 116.547 553.406 115.95 552.476 115.226C551.461 114.417 550.848 113.586 550.636 112.734C550.467 111.925 550.51 111.116 550.763 110.306C551.144 109.114 551.694 108.389 552.412 108.134C553.174 107.921 553.914 108.134 554.632 108.773C555.647 109.667 556.895 110.37 558.375 110.881C559.897 111.435 561.757 111.691 563.956 111.648C565.267 111.605 566.409 111.414 567.381 111.073C568.396 110.732 569.242 110.306 569.918 109.795C570.595 109.284 571.102 108.709 571.441 108.07C571.779 107.431 571.948 106.792 571.948 106.153V101.106Z" fill="black"/>
<path d="M606.635 101.106C606.297 101.83 605.853 102.554 605.303 103.278C604.753 103.96 604.098 104.577 603.337 105.131C602.618 105.685 601.772 106.132 600.8 106.473C599.827 106.771 598.749 106.92 597.565 106.92C595.916 106.92 594.372 106.664 592.935 106.153C591.497 105.642 590.228 104.897 589.129 103.917C588.072 102.895 587.226 101.617 586.592 100.083C585.958 98.5499 585.641 96.7609 585.641 94.7163V75.8039C585.641 75.0372 585.979 74.3983 586.655 73.8871C587.374 73.376 588.326 73.1204 589.51 73.1204C590.694 73.1204 591.645 73.376 592.364 73.8871C593.125 74.3983 593.506 75.0372 593.506 75.8039V91.5855C593.506 92.9486 593.59 94.1413 593.759 95.1636C593.928 96.1859 594.224 97.0378 594.647 97.7193C595.112 98.4008 595.747 98.912 596.55 99.2527C597.353 99.5935 598.368 99.7639 599.595 99.7639C600.609 99.7639 601.54 99.6574 602.385 99.4444C603.273 99.2314 604.013 98.8481 604.605 98.2943C605.24 97.698 605.726 96.8887 606.064 95.8664C606.445 94.8441 606.635 93.5236 606.635 91.905V75.8039C606.635 75.0798 606.994 74.4622 607.713 73.951C608.474 73.3973 609.426 73.1204 610.568 73.1204C611.709 73.1204 612.639 73.3973 613.358 73.951C614.119 74.5048 614.5 75.1224 614.5 75.8039V106.089C614.5 108.049 614.098 109.816 613.295 111.392C612.491 113.011 611.371 114.395 609.933 115.546C608.496 116.696 606.804 117.569 604.859 118.165C602.956 118.761 600.905 119.038 598.707 118.996C597.48 118.996 596.36 118.932 595.345 118.804C594.372 118.719 593.421 118.527 592.491 118.229C591.603 117.931 590.715 117.526 589.827 117.015C588.981 116.547 588.093 115.95 587.163 115.226C586.148 114.417 585.535 113.586 585.323 112.734C585.154 111.925 585.197 111.116 585.45 110.306C585.831 109.114 586.381 108.389 587.099 108.134C587.86 107.921 588.6 108.134 589.319 108.773C590.334 109.667 591.582 110.37 593.062 110.881C594.584 111.435 596.444 111.691 598.643 111.648C599.954 111.605 601.096 111.414 602.068 111.073C603.083 110.732 603.929 110.306 604.605 109.795C605.282 109.284 605.789 108.709 606.128 108.07C606.466 107.431 606.635 106.792 606.635 106.153V101.106Z" fill="black"/>
<path d="M437.246 49C445.768 49 449.638 49.0201 453.799 50.3271C458.148 51.9243 461.576 55.3515 463.173 59.7012C464.48 63.8615 464.5 67.7329 464.5 76.2539V101.746C464.5 110.268 464.48 114.138 463.173 118.299C461.576 122.649 458.148 126.075 453.799 127.672C449.638 128.98 445.768 129 437.246 129H411.754C403.232 129 399.361 128.98 395.201 127.672C390.852 126.075 387.424 122.649 385.827 118.299C384.52 114.138 384.5 110.268 384.5 101.746V76.2539C384.5 67.733 384.52 63.8615 385.827 59.7012C387.424 55.3515 390.852 51.9243 395.201 50.3271C399.361 49.0201 403.232 49 411.754 49H437.246ZM437 64C432.685 64 429.188 67.4978 429.188 71.8125V81.1875C429.188 82.0504 429.887 82.75 430.75 82.75C431.613 82.75 432.312 82.0504 432.312 81.1875V71.8125C432.312 69.2237 434.411 67.125 437 67.125C439.589 67.125 441.688 69.2237 441.688 71.8125V90.1064C439.397 87.5115 436.046 85.875 432.312 85.875H423.01C421.244 85.875 419.812 84.4434 419.812 82.6777V71.8125C419.812 67.4978 416.315 64 412 64C407.685 64 404.188 67.4978 404.188 71.8125V106.188C404.188 110.502 407.685 114 412 114C416.315 114 419.812 110.502 419.812 106.188V104.625C419.812 103.762 419.113 103.062 418.25 103.062C417.387 103.062 416.688 103.762 416.688 104.625V106.188C416.688 108.776 414.589 110.875 412 110.875C409.411 110.875 407.312 108.776 407.312 106.188V95.7061C409.603 98.301 412.954 99.9375 416.688 99.9375H426.062C427.788 99.9375 429.188 101.337 429.188 103.062V106.188C429.188 110.502 432.685 114 437 114C441.315 114 444.812 110.502 444.812 106.188V71.8125C444.812 67.4978 441.315 64 437 64ZM412 67.125C414.589 67.125 416.688 69.2237 416.688 71.8125V82.6777C416.688 86.1693 419.518 89 423.01 89H432.312C437.49 89 441.688 93.1973 441.688 98.375V106.188C441.688 108.776 439.589 110.875 437 110.875C434.411 110.875 432.312 108.776 432.312 106.188V103.062C432.312 99.6107 429.514 96.8125 426.062 96.8125H416.688C411.51 96.8125 407.312 92.6152 407.312 87.4375V71.8125C407.312 69.2237 409.411 67.125 412 67.125Z" fill="black"/>
</svg>
