<svg width="99" height="32" viewBox="0 0 99 32" fill="none" xmlns="http://www.w3.org/2000/svg">
<path fill-rule="evenodd" clip-rule="evenodd" d="M5 2C3.34315 2 2 3.34315 2 5V15C2 18.3137 4.68629 21 8 21H14C16.2091 21 18 22.7909 18 25V27C18 28.6569 19.3431 30 21 30C22.6569 30 24 28.6569 24 27V22C24 18.6863 21.3137 16 18 16H12.0461C9.81151 16 8 14.1885 8 11.9539V5C8 3.34315 6.65685 2 5 2ZM24 16.7084C22.5341 15.0475 20.3894 14 18 14H12.0461C10.9161 14 10 13.0839 10 11.9539V5C10 2.23858 7.76142 0 5 0C2.23858 0 0 2.23858 0 5V27C0 29.7614 2.23858 32 5 32C7.76142 32 10 29.7614 10 27V26C10 25.4477 9.55229 25 9 25C8.44772 25 8 25.4477 8 26V27C8 28.6569 6.65685 30 5 30C3.34315 30 2 28.6569 2 27V20.2916C3.46589 21.9525 5.61061 23 8 23H14C15.1046 23 16 23.8954 16 25V27C16 29.7614 18.2386 32 21 32C23.7614 32 26 29.7614 26 27V5C26 2.23858 23.7614 0 21 0C18.2386 0 16 2.23858 16 5V11C16 11.5523 16.4477 12 17 12C17.5523 12 18 11.5523 18 11V5C18 3.34315 19.3431 2 21 2C22.6569 2 24 3.34315 24 5V16.7084Z" fill="#FE3265"/>
<path d="M44.4972 16.4079C44.4972 15.7264 44.455 15.1301 44.3704 14.6189C44.2858 14.0865 44.1272 13.6499 43.8947 13.3091C43.6833 12.9683 43.3767 12.7128 42.975 12.5424C42.5733 12.372 42.0659 12.2868 41.4527 12.2868C40.9453 12.2868 40.4696 12.3401 40.0256 12.4465C39.6028 12.553 39.2328 12.7554 38.9156 13.0535C38.6196 13.3304 38.3765 13.7351 38.1862 14.2675C38.0171 14.7786 37.9325 15.4389 37.9325 16.2482V25.2891C37.9325 25.6511 37.7422 25.96 37.3617 26.2155C37.0022 26.4924 36.5371 26.6308 35.9663 26.6308C35.3954 26.6308 34.9197 26.4924 34.5391 26.2155C34.1797 25.9387 34 25.6298 34 25.2891V3.34176C34 2.9584 34.1903 2.63893 34.5708 2.38336C34.9726 2.12779 35.4483 2 35.998 2C36.5477 2 37.0022 2.12779 37.3617 2.38336C37.7422 2.63893 37.9325 2.9584 37.9325 3.34176V11.6479C38.1228 11.2645 38.3448 10.9025 38.5985 10.5617C38.8733 10.2209 39.1905 9.91211 39.5499 9.63524C39.9305 9.35837 40.3533 9.14539 40.8185 8.99631C41.3047 8.82593 41.8544 8.74074 42.4676 8.74074C43.2921 8.74074 44.0638 8.86852 44.7827 9.1241C45.5015 9.37967 46.1252 9.76303 46.6538 10.2742C47.2035 10.764 47.6369 11.3923 47.954 12.159C48.2712 12.9257 48.4297 13.8202 48.4297 14.8425V25.2891C48.4297 25.6724 48.25 25.9919 47.8906 26.2475C47.5523 26.5031 47.0872 26.6308 46.4952 26.6308C45.9032 26.6308 45.4169 26.5031 45.0364 26.2475C44.677 25.9919 44.4972 25.6724 44.4972 25.2891V16.4079Z" fill="#FE3265"/>
<path d="M61.0117 16.376C61.0117 15.8435 60.9694 15.3324 60.8848 14.8425C60.8002 14.3314 60.6417 13.8948 60.4091 13.5327C60.1977 13.1494 59.9017 12.8512 59.5211 12.6382C59.1617 12.4039 58.686 12.2868 58.094 12.2868C57.3329 12.2868 56.7197 12.4252 56.2546 12.7021C55.7895 12.9577 55.4301 13.2985 55.1763 13.7244C54.9226 14.1291 54.7535 14.5763 54.6689 15.0662C54.5844 15.5347 54.5421 15.9713 54.5421 16.376H61.0117ZM58.1891 26.9503C56.8995 26.9503 55.7789 26.7373 54.8275 26.3114C53.8761 25.8854 53.0832 25.2891 52.449 24.5224C51.8147 23.7343 51.339 22.7866 51.0218 21.6791C50.7047 20.5716 50.5461 19.3364 50.5461 17.9733C50.5461 16.6528 50.7047 15.4282 51.0218 14.2994C51.339 13.1707 51.8147 12.2016 52.449 11.3923C53.1044 10.5617 53.9078 9.91211 54.8592 9.44356C55.8106 8.97501 56.9206 8.74074 58.1891 8.74074C59.3943 8.74074 60.4197 8.95371 61.2654 9.37967C62.1111 9.80562 62.7982 10.3807 63.3268 11.1048C63.8765 11.8289 64.2782 12.6702 64.5319 13.6286C64.7856 14.587 64.9125 15.5986 64.9125 16.6635C64.9125 17.558 64.7962 18.2395 64.5636 18.7081C64.331 19.1766 63.8976 19.4109 63.2633 19.4109H54.5421C54.5421 19.9008 54.5949 20.38 54.7006 20.8485C54.8063 21.3171 54.9966 21.743 55.2715 22.1264C55.5675 22.5097 55.948 22.8185 56.4132 23.0528C56.8995 23.2871 57.5126 23.4042 58.2526 23.4042C59.204 23.4042 59.944 23.2658 60.4725 22.9889C61.0222 22.6908 61.4557 22.3606 61.7728 21.9986C62.0054 21.7217 62.2379 21.5513 62.4705 21.4874C62.7031 21.4235 62.9145 21.4235 63.1048 21.4874C63.3162 21.53 63.4959 21.6046 63.6439 21.7111C63.813 21.8176 63.9505 21.9027 64.0562 21.9666C64.4579 22.2861 64.6165 22.7334 64.5319 23.3084C64.4473 23.8621 64.1408 24.4159 63.6122 24.9696C63.1048 25.5021 62.3859 25.96 61.4557 26.3433C60.5465 26.748 59.4577 26.9503 58.1891 26.9503Z" fill="#FE3265"/>
<path d="M77.7241 23.0528C77.5549 23.4149 77.3329 23.7769 77.0581 24.139C76.7832 24.4798 76.4555 24.7886 76.0749 25.0655C75.7155 25.3423 75.2927 25.566 74.8064 25.7363C74.3201 25.8854 73.781 25.96 73.189 25.96C72.3644 25.96 71.5927 25.8322 70.8739 25.5766C70.155 25.321 69.5208 24.9483 68.9711 24.4585C68.4425 23.9473 68.0197 23.3084 67.7025 22.5417C67.3854 21.775 67.2268 20.8804 67.2268 19.8582V10.402C67.2268 10.0186 67.396 9.69913 67.7342 9.44356C68.0937 9.18799 68.5694 9.0602 69.1614 9.0602C69.7533 9.0602 70.229 9.18799 70.5885 9.44356C70.969 9.69913 71.1593 10.0186 71.1593 10.402V18.2928C71.1593 18.9743 71.2016 19.5706 71.2862 20.0818C71.3707 20.5929 71.5187 21.0189 71.7302 21.3596C71.9627 21.7004 72.2799 21.956 72.6816 22.1264C73.0833 22.2967 73.5907 22.3819 74.2038 22.3819C74.7113 22.3819 75.1764 22.3287 75.5992 22.2222C76.0432 22.1157 76.4132 21.924 76.7092 21.6472C77.0264 21.349 77.2695 20.9443 77.4386 20.4332C77.6289 19.922 77.7241 19.2618 77.7241 18.4525V10.402C77.7241 10.0399 77.9038 9.73108 78.2632 9.47551C78.6438 9.19864 79.1195 9.0602 79.6903 9.0602C80.2612 9.0602 80.7263 9.19864 81.0857 9.47551C81.4663 9.75238 81.6566 10.0612 81.6566 10.402V25.5447C81.6566 26.5244 81.4557 27.4082 81.054 28.1962C80.6523 29.0055 80.092 29.6977 79.3732 30.2728C78.6543 30.8478 77.8086 31.2844 76.8361 31.5826C75.8847 31.8807 74.8593 32.0192 73.7598 31.9979C73.1467 31.9979 72.5864 31.9659 72.079 31.902C71.5927 31.8594 71.117 31.7636 70.6519 31.6145C70.2079 31.4654 69.7639 31.2631 69.3199 31.0075C68.8971 30.7733 68.4531 30.4751 67.9879 30.113C67.4805 29.7084 67.174 29.2931 67.0682 28.8671C66.9837 28.4624 67.0048 28.0578 67.1317 27.6531C67.322 27.0568 67.5968 26.6947 67.9562 26.5669C68.3368 26.4605 68.7068 26.5669 69.0662 26.8864C69.5736 27.3337 70.1973 27.6851 70.9373 27.9407C71.6985 28.2175 72.6287 28.3453 73.7281 28.324C74.3835 28.3027 74.9544 28.2069 75.4407 28.0365C75.9481 27.8661 76.3709 27.6531 76.7092 27.3976C77.0475 27.142 77.3012 26.8545 77.4703 26.535C77.6395 26.2155 77.7241 25.8961 77.7241 25.5766V23.0528Z" fill="#FE3265"/>
<path d="M95.0675 23.0528C94.8984 23.4149 94.6764 23.7769 94.4015 24.139C94.1267 24.4798 93.799 24.7886 93.4184 25.0655C93.059 25.3423 92.6361 25.566 92.1498 25.7363C91.6636 25.8854 91.1244 25.96 90.5324 25.96C89.7079 25.96 88.9362 25.8322 88.2173 25.5766C87.4985 25.321 86.8642 24.9483 86.3145 24.4585C85.786 23.9473 85.3631 23.3084 85.046 22.5417C84.7288 21.775 84.5703 20.8804 84.5703 19.8582V10.402C84.5703 10.0186 84.7394 9.69913 85.0777 9.44356C85.4371 9.18799 85.9128 9.0602 86.5048 9.0602C87.0968 9.0602 87.5725 9.18799 87.9319 9.44356C88.3125 9.69913 88.5028 10.0186 88.5028 10.402V18.2928C88.5028 18.9743 88.545 19.5706 88.6296 20.0818C88.7142 20.5929 88.8622 21.0189 89.0736 21.3596C89.3062 21.7004 89.6233 21.956 90.025 22.1264C90.4267 22.2967 90.9341 22.3819 91.5473 22.3819C92.0547 22.3819 92.5198 22.3287 92.9427 22.2222C93.3867 22.1157 93.7567 21.924 94.0527 21.6472C94.3698 21.349 94.6129 20.9443 94.7821 20.4332C94.9724 19.922 95.0675 19.2618 95.0675 18.4525V10.402C95.0675 10.0399 95.2472 9.73108 95.6066 9.47551C95.9872 9.19864 96.4629 9.0602 97.0338 9.0602C97.6046 9.0602 98.0697 9.19864 98.4292 9.47551C98.8097 9.75238 99 10.0612 99 10.402V25.5447C99 26.5244 98.7991 27.4082 98.3974 28.1962C97.9957 29.0055 97.4355 29.6977 96.7166 30.2728C95.9978 30.8478 95.1521 31.2844 94.1795 31.5826C93.2281 31.8807 92.2027 32.0192 91.1033 31.9979C90.4902 31.9979 89.9299 31.9659 89.4225 31.902C88.9362 31.8594 88.4605 31.7636 87.9953 31.6145C87.5513 31.4654 87.1074 31.2631 86.6634 31.0075C86.2405 30.7733 85.7965 30.4751 85.3314 30.113C84.824 29.7084 84.5174 29.2931 84.4117 28.8671C84.3271 28.4624 84.3483 28.0578 84.4751 27.6531C84.6654 27.0568 84.9403 26.6947 85.2997 26.5669C85.6802 26.4605 86.0502 26.5669 86.4097 26.8864C86.9171 27.3337 87.5408 27.6851 88.2808 27.9407C89.0419 28.2175 89.9722 28.3453 91.0716 28.324C91.727 28.3027 92.2978 28.2069 92.7841 28.0365C93.2915 27.8661 93.7144 27.6531 94.0527 27.3976C94.3909 27.142 94.6446 26.8545 94.8138 26.535C94.9829 26.2155 95.0675 25.8961 95.0675 25.5766V23.0528Z" fill="#FE3265"/>
</svg>
